<svg width="92" height="98" viewBox="0 0 92 98" fill="none" xmlns="http://www.w3.org/2000/svg">
<path d="M3.64611 75.7032C3.69595 75.85 3.80205 75.971 3.94108 76.0395C4.08011 76.1081 4.24068 76.1186 4.38746 76.0687C4.53425 76.0189 4.65522 75.9128 4.72377 75.7738C4.79232 75.6347 4.80283 75.4742 4.75299 75.3274C4.75299 75.3274 4.75299 75.3274 4.75299 75.3274C3.46077 71.4856 2.7336 67.4454 2.19455 63.3912C2.0286 62.1248 1.90232 60.8508 1.80237 59.5713C1.79646 59.4959 1.79072 59.4209 1.78514 59.346C1.53045 55.9305 1.5584 52.5181 1.80573 49.1278C1.98637 45.9278 2.71653 42.8504 2.81605 39.4064C2.7952 36.4652 2.38675 33.7761 2.44365 31.0231C2.46579 27.7704 2.80891 24.5191 3.28996 21.2578C3.59431 19.2044 4.10405 17.1976 4.90694 15.3271C6.33249 11.9209 8.86211 9.1444 11.9033 6.96339C13.192 6.02341 14.6899 5.34511 16.2676 4.8437C22.398 2.95633 29.1558 3.41399 35.8983 2.49132C37.9325 2.1992 39.9952 2.09019 42.0585 2.13675C47.5643 2.2545 52.981 3.54116 58.2948 5.25542C60.6792 6.00477 63.094 6.57575 65.4874 7.10872C69.803 8.07047 74.0868 8.93845 77.9742 10.6454C80.1469 11.6101 82.0443 13.4454 83.8647 15.3552C84.2931 15.8055 84.7218 16.266 85.1584 16.7285C86.462 18.2558 87.2141 20.9798 87.7916 23.4174C87.9429 24.0773 88.0806 24.7445 88.2074 25.4152C88.5931 27.5226 88.5902 29.8193 88.5156 32.1034C88.2551 38.3657 87.4389 44.6988 86.8955 51.0604C86.7767 52.4059 86.6575 53.7491 86.5367 55.0913C85.8816 61.7806 85.461 68.6146 83.9517 74.9578C83.8795 75.2382 83.7382 75.578 83.5694 75.9142C82.4344 78.0684 80.6553 80.1939 78.9724 82.2752C78.8776 82.3913 78.7418 82.5305 78.5978 82.6619C72.7874 86.9288 65.0358 89.7373 57.9472 92.8046C57.6224 92.9393 57.3093 93.0629 56.9857 93.1843C51.3264 95.4405 45.5029 94.9852 39.3497 93.2415C38.6805 93.1114 38.0249 92.9819 37.3677 92.85C31.6243 91.7367 26.0497 90.2666 20.2577 88.9416C19.3404 88.7419 18.4243 88.5629 17.5123 88.3929C15.673 88.0488 13.8428 87.7473 12.0742 87.3674C11.6025 87.2775 10.8019 86.6779 10.1487 86.0306C9.17051 85.0713 8.25479 83.9313 7.36424 82.7719L7.45025 82.8996C7.01575 82.1616 6.63641 81.3204 6.29338 80.4643C5.35377 78.0917 4.57918 75.5735 3.86547 73.045C3.42022 71.4564 3.00591 69.854 2.62334 68.2385L2.63205 68.2893C2.55636 67.8665 2.48664 67.4421 2.42267 67.0163C1.92815 63.7343 1.69152 60.3807 1.48091 57.0143C1.47311 56.8909 1.41501 56.7738 1.32223 56.6886C1.22928 56.6034 1.10925 56.5571 0.985719 56.56C0.862187 56.5629 0.744463 56.6148 0.655622 56.7042C0.566944 56.7937 0.51442 56.9134 0.512426 57.0371C0.512426 57.0371 0.512426 57.0371 0.512426 57.0371C0.460059 60.4081 0.381307 63.8048 0.674902 67.2214C0.712879 67.6643 0.755457 68.1074 0.803454 68.5505L0.812162 68.6013C1.08558 70.2593 1.37819 71.914 1.71822 73.5657C2.2663 76.1979 2.90488 78.8297 3.91179 81.41C4.28315 82.3459 4.69535 83.2816 5.23536 84.2051L5.32137 84.3328C6.24811 85.5406 7.20071 86.7411 8.35181 87.8739C9.17713 88.6317 9.97859 89.4767 11.5303 89.8844C13.3926 90.2842 15.2288 90.5857 17.0399 90.9254C17.9371 91.0929 18.8278 91.2673 19.709 91.4595C25.3372 92.7483 31.0898 94.264 36.8594 95.3815C37.522 95.5145 38.1828 95.645 38.857 95.7761C44.6052 97.4756 51.8633 98.1146 57.8915 95.6022C58.2442 95.47 58.5845 95.3356 58.9368 95.1895C66.1726 92.0144 73.4752 89.5848 80.3326 84.5584C80.54 84.3685 80.7585 84.1503 80.9606 83.9036C82.6775 81.7612 84.4498 79.718 85.864 77.0637C86.0815 76.6259 86.2894 76.1588 86.4363 75.6004C88.047 68.7902 88.4265 62.055 89.0927 55.3215C89.2138 53.9765 89.3325 52.6317 89.4503 51.285C89.9841 44.957 90.7867 38.6564 91.0492 32.1918C91.1191 29.8174 91.1413 27.4248 90.6896 24.9444C90.5566 24.2457 90.4115 23.5475 90.2508 22.8516C89.5629 20.2148 89.0853 17.5701 86.981 15.0029C86.552 14.5509 86.1179 14.0874 85.6756 13.626C83.7799 11.6708 81.7436 9.62201 78.9571 8.38484C74.7292 6.56317 70.2854 5.71627 65.9945 4.79051C63.6127 4.27972 61.2587 3.75129 58.9677 3.064C53.563 1.39849 47.8818 0.127767 42.1056 0.0103174C39.9362 -0.0371407 37.7561 0.0782571 35.5961 0.389238C29.1642 1.29542 22.3238 0.786308 15.6253 2.8263C13.8906 3.37919 12.1801 4.15461 10.6642 5.28008C7.45868 7.61066 4.6261 10.7867 3.08389 14.5508C2.20998 16.6162 1.67048 18.7901 1.35312 20.9735C0.873387 24.2944 0.526657 27.63 0.521784 31.0163C0.480334 33.8711 0.920418 36.7437 0.957994 39.4041C0.911819 42.4474 0.211725 45.7382 0.0720118 49.0162C-0.130196 52.5213 0.116603 56.0172 0.523834 59.4674C0.532731 59.5431 0.541733 59.619 0.55084 59.6953C0.704991 60.9813 0.86777 62.263 1.03551 63.5431C1.58148 67.6427 2.31399 71.7396 3.64611 75.7032Z" fill="url(#paint0_linear_445_57)"/>
<path d="M48.9395 71.7495C49.1611 71.7133 49.3593 71.5906 49.4905 71.4084C49.6216 71.2261 49.675 70.9992 49.6389 70.7776C49.6027 70.5559 49.4801 70.3577 49.2978 70.2266C49.1155 70.0954 48.8886 70.042 48.667 70.0782C48.667 70.0782 48.667 70.0782 48.667 70.0782C46.4525 70.4035 44.0026 70.1114 41.6557 69.7184C40.2161 69.4684 38.7872 69.1495 37.3718 68.7719C34.6626 68.0228 31.7846 67.023 29.7416 65.5283C28.0605 64.1721 27.051 62.0313 26.3504 59.812C25.538 57.2077 25.1863 54.404 25.0374 51.593C24.8792 48.7293 25.3077 45.9068 26.5959 43.4261C27.6471 41.3269 29.2909 39.4988 30.8001 37.3478C30.9552 37.1247 31.1079 36.8983 31.2579 36.6671C32.5537 34.6682 34.222 32.9116 36.1914 31.6727C38.942 29.9559 42.4125 29.3543 45.8243 29.2979C48.5787 29.2626 51.3824 29.5831 54.0434 30.2291C54.6456 30.379 55.3 30.6889 55.9348 31.0626C58.2141 32.4381 60.3338 34.4279 62.4124 36.3923C65.8771 39.8917 65.6016 46.1608 65.0415 51.5748C64.7401 54.2534 64.1946 56.9202 63.7113 59.6351C63.6835 59.7848 63.6419 59.9433 63.5872 60.1079C62.9027 62.0476 60.9266 64.0745 59.0226 65.8815C56.764 67.9491 52.8592 68.5669 49.2055 68.7024C48.859 68.7142 48.512 68.7276 48.1633 68.7415C46.8516 68.7936 45.5259 68.8542 44.1878 68.8536C43.1532 68.8536 42.0464 69.3027 40.955 69.4715C40.8411 69.489 40.7233 69.5616 40.6306 69.6536C40.5377 69.7468 40.4775 69.8518 40.4602 69.9652C40.443 70.0786 40.4692 70.1967 40.5302 70.3133C40.5914 70.4287 40.6822 70.533 40.7858 70.5837C41.7986 71.0723 42.8328 71.7716 43.9254 71.9519C45.3302 72.1831 46.7483 72.3635 48.1852 72.3998C48.5669 72.4093 48.9488 72.4086 49.3315 72.3955C53.3706 72.1766 57.8452 71.7427 61.4764 68.4313C63.4574 66.391 65.6053 64.4301 66.7836 61.116C66.8759 60.8146 66.9517 60.4983 67.0016 60.1662C67.4007 57.4567 67.7557 54.6793 68.0178 51.8821C68.384 46.2158 69.1195 39.4673 64.269 34.4173C62.1015 32.4393 59.9492 30.4256 57.2288 28.8237C56.4548 28.3866 55.6177 27.9813 54.6364 27.7482C51.7195 27.0868 48.7655 26.7919 45.7837 26.8373C42.0992 26.92 38.2436 27.5284 34.8931 29.6111C32.5693 31.081 30.6789 33.1008 29.2259 35.3526C29.0923 35.5598 28.9544 35.7654 28.8125 35.9709C27.4441 37.9501 25.7128 39.9347 24.4912 42.3556C22.9898 45.2334 22.4906 48.5781 22.6629 51.7118C22.8134 54.6545 23.1636 57.6211 24.0683 60.5305C24.853 63.0006 26.167 65.5476 28.4959 67.1986C31.276 68.9365 34.0851 69.594 36.9348 70.4079C38.3974 70.798 39.8714 71.1271 41.3666 71.3869C43.8215 71.7892 46.3141 72.1245 48.9395 71.7495Z" fill="url(#paint1_linear_445_57)"/>
<path d="M71.7362 21.5447C71.8479 21.6602 72.001 21.7267 72.1616 21.7294C72.3223 21.7321 72.4775 21.6708 72.5931 21.5591C72.7086 21.4474 72.775 21.2944 72.7777 21.1337C72.7804 20.973 72.7192 20.8178 72.6075 20.7023C72.6075 20.7023 72.6075 20.7023 72.6075 20.7023C72.3001 20.3801 72.0107 19.9542 71.7664 19.5256C71.3185 18.7326 70.9828 17.8594 70.8815 16.9985C70.8754 16.9447 70.8713 16.8907 70.8693 16.8372C70.8554 16.354 71.1533 15.9967 71.4943 15.5709C71.5434 15.5093 71.5953 15.4476 71.6495 15.3855C72.4609 14.4424 73.8217 14.0921 75.1383 14.2373C75.1444 14.238 75.1506 14.2387 75.1567 14.2394C75.9288 14.3014 76.6744 15.2401 77.2634 16.2839C77.2793 16.3115 77.2948 16.3393 77.3099 16.3673C77.8398 17.339 77.8987 18.614 77.601 19.8076C77.5889 19.8566 77.5762 19.9054 77.563 19.9542C77.4372 20.4274 77.0325 20.933 76.5465 21.2929C76.5064 21.3227 76.4654 21.3518 76.4244 21.3795C75.6829 21.9102 74.6493 21.7315 73.6479 21.1722L73.7235 21.2184C73.6956 21.1989 73.6677 21.179 73.6398 21.1586C73.1767 20.8185 72.7544 20.3608 72.3716 19.8672C72.3433 19.8307 72.3156 19.7944 72.2884 19.7582C71.9354 19.294 71.6533 18.7766 71.3701 18.1997C71.1463 17.7432 70.9295 17.2683 70.7104 16.789C70.6349 16.6234 70.5037 16.4856 70.336 16.4095C70.1684 16.3333 69.9794 16.3244 69.8087 16.3856C69.6379 16.4468 69.4975 16.5736 69.4164 16.7389C69.3352 16.9042 69.3213 17.0939 69.3681 17.2698C69.3681 17.2698 69.3681 17.2698 69.3681 17.2698C69.5102 17.7972 69.671 18.3215 69.8706 18.8473C70.1184 19.5008 70.4472 20.1897 70.9075 20.7946C70.9416 20.84 70.9757 20.8843 71.0098 20.928C71.4706 21.5142 72.001 22.0636 72.6497 22.5299C72.689 22.558 72.7287 22.5856 72.7688 22.6128L72.8444 22.6589C74.029 23.3308 75.9299 23.7777 77.356 22.7414C77.4174 22.6991 77.4781 22.6552 77.5371 22.6105C78.2387 22.0671 78.8591 21.3645 79.1391 20.3812C79.1554 20.3209 79.171 20.2604 79.1861 20.1997C79.5468 18.7325 79.5737 17.0537 78.7809 15.5726C78.7582 15.5306 78.7349 15.4889 78.711 15.4475C78.052 14.3674 77.2174 12.8624 75.3561 12.5795C75.3426 12.5779 75.329 12.5763 75.3153 12.5749C73.6052 12.3796 71.6344 12.9185 70.4603 14.3871C70.3956 14.4667 70.3313 14.5489 70.2681 14.6344C69.8217 15.215 69.5459 16.1148 69.6545 16.9318C69.6619 17.0003 69.6697 17.0688 69.6775 17.1368C69.8088 18.225 70.2013 19.2139 70.7126 20.1242C70.9981 20.6203 71.3087 21.093 71.7362 21.5447Z" fill="url(#paint2_linear_445_57)"/>
<defs>
<linearGradient id="paint0_linear_445_57" x1="45.3205" y1="1.06323" x2="45.3205" y2="96.0632" gradientUnits="userSpaceOnUse">
<stop stop-color="#7D0BFE"/>
<stop offset="0.173077" stop-color="#FD02C4"/>
<stop offset="1" stop-color="#FFC301"/>
</linearGradient>
<linearGradient id="paint1_linear_445_57" x1="45.3205" y1="28.0632" x2="45.3205" y2="70.5714" gradientUnits="userSpaceOnUse">
<stop stop-color="#7D0BFE"/>
<stop offset="0.173077" stop-color="#FD02C4"/>
<stop offset="1" stop-color="#FFC301"/>
</linearGradient>
<linearGradient id="paint2_linear_445_57" x1="74.3215" y1="13.3724" x2="74.3215" y2="22.5336" gradientUnits="userSpaceOnUse">
<stop stop-color="#7D0BFE"/>
<stop offset="0.173077" stop-color="#FD02C4"/>
<stop offset="1" stop-color="#FFC301"/>
</linearGradient>
</defs>
</svg>
