<svg width="92" height="98" viewBox="0 0 92 98" fill="none" xmlns="http://www.w3.org/2000/svg">
<path d="M5.79394 80.6523C5.84596 80.8218 5.96317 80.9637 6.1198 81.0467C6.27642 81.1298 6.45963 81.1472 6.62911 81.0952C6.79859 81.0432 6.94047 80.926 7.02353 80.7693C7.10659 80.6127 7.12402 80.4295 7.072 80.26C7.072 80.26 7.072 80.26 7.072 80.26C5.45873 75.1571 4.62409 69.8689 3.88694 64.5308C3.88591 64.5233 3.88488 64.5159 3.88385 64.5084C3.82274 64.0634 3.77865 63.6164 3.74638 63.1674C3.60963 61.2483 3.6817 59.3021 3.53415 57.3689C3.53335 57.3582 3.53254 57.3475 3.53173 57.3369C3.16033 52.6948 3.06596 48.0645 3.16494 43.4122C3.16527 43.3958 3.1656 43.3794 3.16594 43.363C3.32441 36.6455 3.76324 29.8907 4.31963 23.1742C4.32173 23.1497 4.32383 23.1252 4.32592 23.1008C4.62703 20.0636 4.82051 16.8168 5.82981 14.2888C5.83971 14.2659 5.84963 14.2431 5.85958 14.2204C6.71786 12.378 8.46502 10.6451 10.2047 9.12458C10.2264 9.10584 10.2482 9.0871 10.27 9.06835C12.431 7.23646 15.4337 6.23167 18.3801 5.16938C18.4077 5.15958 18.4354 5.14977 18.463 5.13996C22.3766 3.79906 26.9155 3.91851 31.3392 3.74458C31.3714 3.74369 31.4036 3.74279 31.4359 3.74189C36.0178 3.57804 40.4484 2.86243 44.8204 2.54532C44.8549 2.54301 44.8892 2.54076 44.9232 2.53856C48.4907 2.21243 51.7208 2.83294 55.3945 3.53451C55.4266 3.54004 55.4589 3.54557 55.4913 3.55111C60.4087 4.3664 65.3004 5.04592 70.2092 5.70919C70.2468 5.71422 70.2842 5.71922 70.3213 5.72418C75.1969 6.44843 80.4819 6.77537 84.6163 8.36078C84.6452 8.37412 84.6734 8.38745 84.701 8.40075C86.7014 9.44499 87.3431 13.5022 88.07 16.7858C88.0701 16.7863 88.0703 16.7869 88.0704 16.7874C88.9623 21.5266 88.6008 26.8357 88.4757 31.9647C88.4755 31.972 88.4752 31.9793 88.475 31.9866C88.0156 43.4596 87.188 54.9868 86.3025 66.466C86.3008 66.4878 86.2991 66.5096 86.2974 66.5314C85.8703 71.7185 85.4941 76.9251 84.7477 81.9868C84.7434 82.0151 84.7391 82.0432 84.7348 82.0712C84.3594 84.4329 83.8689 86.9148 82.8046 88.6626C82.791 88.684 82.7774 88.705 82.7639 88.7255C82.1054 89.6982 78.8248 90.0462 76.4106 90.3117C73.8226 90.5825 71.2039 90.8276 68.5782 91.1655C68.5556 91.1684 68.5329 91.1713 68.5101 91.1742C61.2349 92.1142 53.9963 93.239 46.7854 94.1412C46.7715 94.1429 46.7577 94.1446 46.7439 94.1463C43.5252 94.5185 40.627 94.9124 37.5737 94.2742C37.5657 94.2729 37.5578 94.2716 37.5498 94.2704C32.8216 93.526 28.2697 92.668 23.3541 91.9888C23.3521 91.9886 23.35 91.9884 23.348 91.9883C21.8561 91.8444 20.2799 91.5984 18.7111 91.4017C18.711 91.4017 18.7109 91.4017 18.7107 91.4017C15.0374 90.9131 11.1425 89.795 8.92026 87.3556C8.91942 87.3546 8.91857 87.3537 8.91773 87.3527C6.67977 84.8167 5.37113 81.5996 4.80008 78.1457C4.79857 78.1372 4.79706 78.1287 4.79556 78.1202C4.32218 75.4694 3.98514 72.8008 3.70934 70.098C3.44182 67.4941 3.21068 64.8561 2.88523 62.2119L2.89396 62.3153C2.89376 62.3111 2.89356 62.307 2.89336 62.3028C2.77231 59.8358 2.52107 57.4089 2.27324 54.9116L2.27564 54.9837C2.2756 54.9829 2.27556 54.9822 2.27552 54.9814C2.24657 54.3336 1.95708 53.5209 1.79954 52.7656C1.77568 52.6504 1.69692 52.5369 1.5978 52.451C1.49768 52.3651 1.38536 52.3139 1.26833 52.3077C1.1513 52.3015 1.03419 52.3405 0.925554 52.4154C0.817918 52.4903 0.727611 52.5949 0.691715 52.707C0.691715 52.707 0.691715 52.707 0.691715 52.707C0.461789 53.4497 0.0428414 54.1328 0.000128269 54.9842C8.84533e-05 54.9852 4.88758e-05 54.9863 9.41753e-06 54.9873L0.00241232 55.0594C0.0234165 57.4837 -0.0291914 59.9762 0.0878849 62.4351C0.0880797 62.4393 0.0882746 62.4435 0.0884696 62.4477L0.0971962 62.5512C0.412068 65.1382 0.637915 67.748 0.906088 70.3855C1.18242 73.121 1.52782 75.8789 2.01471 78.6132C2.01626 78.622 2.01781 78.6307 2.01936 78.6395C2.63011 82.391 4.15261 86.2417 6.7899 89.2157C6.79113 89.2171 6.79235 89.2185 6.79358 89.2199C10.0216 92.6454 14.3229 93.6206 18.3485 94.2104C18.3486 94.2105 18.3488 94.2105 18.3489 94.2105C19.9038 94.4048 21.4402 94.648 23.082 94.8078C23.0842 94.808 23.0864 94.8082 23.0886 94.8084C27.6054 95.4364 32.4126 96.3265 37.0982 97.0662C37.1062 97.0674 37.1142 97.0687 37.1222 97.07C40.3901 97.767 43.9585 97.3294 47.0858 96.9537C47.0998 96.9519 47.1139 96.9502 47.1279 96.9485C54.4199 96.0295 61.6445 94.893 68.8673 93.9433C68.8898 93.9403 68.9123 93.9374 68.9347 93.9345C71.5154 93.5962 74.0857 93.3367 76.7112 93.0442C78.0219 92.8928 79.3447 92.7408 80.7126 92.4701C82.0427 92.1293 83.6769 92.0112 85.0318 90.2178C85.0527 90.186 85.0736 90.1538 85.0944 90.1211C86.6071 87.5641 87.007 85.0184 87.4377 82.4853C87.4421 82.4564 87.4465 82.4274 87.451 82.3983C88.2236 77.146 88.593 71.9594 89.0232 66.747C89.025 66.7251 89.0267 66.7033 89.0284 66.6814C89.9162 55.1677 90.7397 43.6519 91.1998 32.0845C91.2 32.0771 91.2003 32.0697 91.2006 32.0624C91.3102 26.8412 91.7343 21.7018 90.7241 16.2148C90.724 16.2143 90.7239 16.2137 90.7238 16.2132C89.7726 12.95 90.1334 8.7897 85.8764 5.95778C85.8357 5.93821 85.7947 5.91888 85.7533 5.89978C80.5141 3.9333 75.6407 3.81664 70.6737 3.05957C70.6367 3.05473 70.5994 3.04984 70.5618 3.04492C65.6693 2.39715 60.7494 1.77953 55.9099 1.02603C55.8785 1.02099 55.8472 1.01595 55.8161 1.01091C52.3968 0.381887 48.4348 -0.272745 44.7576 0.117636C44.7216 0.120237 44.6854 0.122891 44.649 0.125598C40.1163 0.491876 35.7098 1.21975 31.3647 1.39289C31.3324 1.39395 31.3002 1.395 31.268 1.39605C26.829 1.61014 22.2758 1.44158 17.6957 2.97916C17.668 2.989 17.6404 2.99883 17.6127 3.00866C14.6582 4.09297 11.488 5.06528 8.77537 7.32945C8.75215 7.3494 8.72898 7.36936 8.70587 7.38933C6.84269 9.04993 4.98068 10.744 3.75617 13.2978C3.74445 13.3245 3.73259 13.3517 3.72061 13.3795C2.44686 16.6741 2.3728 19.7642 2.04125 22.9054C2.03915 22.93 2.03705 22.9546 2.03495 22.9794C1.47914 29.7489 1.04341 36.5093 0.892864 43.3184C0.89255 43.3351 0.892239 43.3517 0.891931 43.3683C0.798194 48.0813 0.988097 52.8297 1.45269 57.5135C1.45369 57.5242 1.4547 57.5349 1.45571 57.5455C1.6401 59.4789 2.03362 61.3993 2.35103 63.3329C2.42556 63.7852 2.49634 64.2376 2.55951 64.6915C2.56055 64.699 2.56159 64.7065 2.56263 64.714C3.30023 70.058 4.15101 75.4566 5.79394 80.6523Z" fill="#7096E1"/>
<path d="M37.557 30.8757C37.7782 30.8757 37.9903 30.7879 38.1467 30.6315C38.3032 30.4751 38.391 30.2629 38.391 30.0417C38.391 29.8206 38.3032 29.6084 38.1467 29.452C37.9903 29.2956 37.7782 29.2078 37.557 29.2078C36.916 29.214 36.3539 29.3347 35.797 29.5143C35.794 29.5153 35.7911 29.5163 35.7881 29.5172C35.3836 29.634 35.0963 30.0498 35.0328 30.3115C34.9526 30.5873 34.9602 30.7972 34.9789 30.99C35.0268 31.3715 35.1353 31.6899 35.3735 32.0284C35.3781 32.0349 35.3829 32.0413 35.3876 32.0476C35.6872 32.4352 36.0375 32.704 36.5249 32.86C36.8707 32.9646 37.3779 33.0065 37.8699 32.698C37.8808 32.691 37.8916 32.684 37.9022 32.6768C38.5236 32.2094 38.6023 31.7492 38.7117 31.3868C38.8007 31.0137 38.8277 30.6773 38.8243 30.3252C38.8242 30.3193 38.8241 30.3134 38.824 30.3074C38.8198 29.7615 38.6669 28.9125 37.9899 28.3342C37.9886 28.3331 37.9873 28.332 37.9861 28.3309C37.7046 28.0927 37.3699 27.8906 36.893 27.8183C36.4268 27.732 35.7645 27.9281 35.4129 28.2995C35.4128 28.2995 35.4127 28.2996 35.4126 28.2997C34.4906 29.4114 34.6446 30.2261 34.8166 31.1136C34.8177 31.1177 34.8188 31.1217 34.8198 31.1257C35.16 32.0606 35.4061 32.8123 36.8151 33.39C36.8283 33.3936 36.8416 33.3971 36.8551 33.4005C37.4947 33.5895 38.2493 33.2735 38.5746 32.9403C38.9334 32.6037 39.1164 32.262 39.2536 31.9032C39.2562 31.896 39.2588 31.8888 39.2614 31.8816C39.5516 31.1126 39.4378 30.2301 39.1485 29.6034C39.1435 29.5923 39.1386 29.5812 39.1335 29.5701C38.8337 28.9015 38.2293 28.1297 37.2306 27.8859C37.2098 27.8809 37.1889 27.8761 37.1679 27.8716C36.0422 27.6825 35.3035 27.9916 34.5601 28.4261C34.5418 28.4377 34.5236 28.4495 34.5054 28.4615C33.3307 29.1972 32.8668 30.6355 32.8126 31.6446C32.8111 31.6634 32.8096 31.6819 32.8082 31.7002C32.9507 33.8516 34.0807 34.4248 34.9854 35.2111C35.0051 35.2255 35.025 35.2398 35.0449 35.2541C35.9348 35.852 36.7383 35.5855 37.1797 35.4452C37.655 35.2758 38.0184 35.0607 38.3255 34.885C38.3343 34.8799 38.3428 34.875 38.3511 34.8703C39.6262 34.1587 40.0901 32.7403 40.2272 31.7545C40.3793 30.7161 40.3489 29.7841 40.3443 28.8994C40.3443 28.8978 40.3443 28.8961 40.3443 28.8944C40.3249 28.0424 40.0397 27.3448 39.6259 26.7348C39.6239 26.7319 39.6218 26.7289 39.6198 26.726C39.2463 26.1248 38.3083 25.5396 37.4525 25.6101C37.4409 25.6106 37.4292 25.6111 37.4176 25.6116C35.5684 25.7314 34.4805 27.0545 33.8045 28.0947C33.1127 29.1963 32.6726 30.3266 32.3419 31.5075C32.3288 31.5555 32.3173 31.6037 32.3074 31.652C32.1341 32.5588 32.4958 33.2348 32.7487 33.6599C33.0211 34.0999 33.2989 34.4199 33.5117 34.6945C33.5389 34.7293 33.5671 34.7639 33.5963 34.7984C34.0078 35.3115 34.7593 35.7372 35.4545 35.7992C35.4949 35.8039 35.5352 35.8079 35.5754 35.811C37.8026 35.836 38.9015 34.5104 39.8554 33.4638C39.8724 33.4433 39.8892 33.4228 39.9058 33.4022C41.1305 31.8814 41.1364 29.9665 40.9513 28.5197C40.9472 28.4862 40.9425 28.453 40.9372 28.4196C40.7976 27.4775 40.1287 26.7391 39.4817 26.3663C39.4631 26.3552 39.4445 26.3443 39.4258 26.3336C38.1206 25.5777 36.6249 25.7442 35.5166 26.1457C35.5021 26.1509 35.4877 26.1561 35.4734 26.1613C33.6888 26.8455 32.3514 28.0391 31.4093 29.7411C31.4022 29.7553 31.3952 29.7695 31.3884 29.7838C30.935 30.7328 31.1782 31.6849 31.429 32.2852C31.694 32.9148 32.0252 33.3998 32.3436 33.8471C32.3546 33.8625 32.3658 33.8778 32.3771 33.8929C33.9007 35.6956 35.7647 35.7659 37.3455 35.9101C37.358 35.9107 37.3705 35.9113 37.383 35.9118C37.7922 35.9287 38.2102 35.8527 38.5746 35.7104C39.1858 35.4707 39.6457 35.0888 40.0095 34.6639C40.0149 34.6575 40.0203 34.6512 40.0257 34.6448C40.563 33.9975 40.2642 33.1486 40.3446 32.7029C40.3452 32.7001 40.3457 32.6973 40.3463 32.6945C40.4186 32.335 40.4812 31.9707 40.5393 31.6195C40.5708 31.4304 40.5259 31.2366 40.4145 31.0806C40.3031 30.9247 40.1344 30.8194 39.9453 30.7879C39.7562 30.7563 39.5624 30.8012 39.4065 30.9126C39.2505 31.024 39.1452 31.1928 39.1137 31.3819C39.1137 31.3819 39.1137 31.3819 39.1137 31.3819C39.0554 31.7337 38.9972 32.0717 38.929 32.411C38.9285 32.4136 38.928 32.4162 38.9274 32.4188C38.881 32.6409 38.7151 32.8042 38.548 32.8945C38.3795 32.9889 38.2281 32.9929 38.1752 33.0462C38.174 33.0474 38.1728 33.0486 38.1716 33.0498C38.012 33.2188 37.8257 33.3388 37.693 33.3818C37.6114 33.4091 37.5491 33.4164 37.4815 33.4137C37.4794 33.4136 37.4773 33.4135 37.4752 33.4134C36.1792 33.3621 34.7754 32.9704 34.3945 32.3967C34.3912 32.3922 34.388 32.3878 34.3848 32.3834C34.1134 32.0051 33.8799 31.6347 33.753 31.3249C33.6169 31.0013 33.6556 30.8555 33.6586 30.8719C33.6588 30.8716 33.659 30.8712 33.6592 30.8709C34.1805 29.9039 35.2586 28.9186 36.3399 28.5396C36.3489 28.5364 36.3578 28.5331 36.3668 28.5299C37.0846 28.2712 37.7434 28.2738 38.1641 28.528C38.1707 28.5318 38.1773 28.5356 38.1839 28.5396C38.3892 28.666 38.4255 28.7619 38.4332 28.816C38.4336 28.8186 38.4339 28.8214 38.4342 28.8242C38.594 30.0585 38.4666 31.1424 37.9163 31.7965C37.9086 31.806 37.9008 31.8154 37.8929 31.8249C37.2199 32.669 36.2024 33.3403 35.7796 33.2528C35.7717 33.2521 35.7638 33.2513 35.7561 33.2503C35.6533 33.2286 35.6597 33.2325 35.5616 33.1297C35.5555 33.1226 35.5493 33.1149 35.5429 33.1068C35.2882 32.7836 35.0734 32.5215 34.9474 32.3136C34.8088 32.0999 34.85 32.0194 34.8335 32.1676C34.8322 32.1738 34.8307 32.1801 34.8291 32.1861C35.3023 30.3214 36.5674 28.1054 37.5473 28.1514C37.5477 28.1514 37.5481 28.1513 37.5485 28.1513C37.5594 28.1678 37.451 28.0759 37.5546 28.1831C37.5554 28.1842 37.5562 28.1853 37.557 28.1864C37.7342 28.4271 37.8518 28.738 37.8513 28.9296C37.8513 28.93 37.8514 28.9304 37.8514 28.9308C37.9178 30.6582 37.7932 32.498 37.1228 32.7333C37.1138 32.7384 37.1048 32.7436 37.0957 32.7488C36.798 32.9224 36.5498 33.0542 36.3649 33.1177C36.2767 33.1496 36.2095 33.1572 36.2232 33.155C36.2291 33.1514 36.3693 33.1627 36.485 33.2491C36.4711 33.2391 36.4573 33.229 36.4436 33.219C36.1083 32.973 35.806 32.6918 35.5838 32.4071C35.3553 32.1463 35.2562 31.7658 35.2818 31.8847C35.2828 31.8723 35.2837 31.8598 35.2848 31.8474C35.343 31.1393 35.5358 30.7503 35.8703 30.5327C35.8766 30.5285 35.883 30.5244 35.8896 30.5202C36.1457 30.3403 36.6135 30.2456 36.6639 30.2731C36.6648 30.2732 36.6657 30.2733 36.6666 30.2734C36.6817 30.2625 36.8353 30.3314 36.958 30.5815C36.96 30.5854 36.9618 30.5892 36.9637 30.5931C37.071 30.8224 37.0771 30.9528 37.0344 31.0792C37.0339 31.0806 37.0334 31.082 37.0329 31.0833C37.0103 31.1527 36.9556 31.2183 36.9768 31.1937C36.9722 31.1738 37.2439 31.0405 37.4339 31.1052C37.4374 31.1061 37.4407 31.107 37.444 31.1078C37.608 31.1776 37.4137 31.0852 37.3299 30.9512C37.2273 30.8175 37.1405 30.6424 37.104 30.5042C37.1037 30.503 37.1033 30.5018 37.103 30.5006C37.0677 30.371 37.0581 30.2203 37.0751 30.0945C37.0773 29.9771 37.183 29.8507 37.0638 29.9959C37.0638 29.996 37.0638 29.996 37.0637 29.996C36.9787 30.0989 36.7103 30.1702 36.6173 30.1343C36.5149 30.108 36.5294 30.0829 36.5373 30.0829C36.5373 30.0829 36.5374 30.0829 36.5374 30.0829C36.5422 30.0559 36.6336 30.1162 36.6665 30.416C36.6669 30.4188 36.6672 30.4217 36.6675 30.4245C36.6869 30.5997 36.6812 30.7951 36.6592 30.9389C36.6527 31.0838 36.5475 31.1634 36.7346 31.0147C36.7379 31.0126 36.7414 31.0106 36.7449 31.0085C36.908 30.9203 36.991 30.9798 36.9601 30.9952C36.9266 31.0261 36.7994 30.9924 36.7645 30.9612C36.7639 30.9608 36.7633 30.9604 36.7628 30.96C36.7316 30.9428 36.6717 30.8317 36.6591 30.7717C36.6498 30.7439 36.6572 30.7257 36.6395 30.7865C36.6351 30.8349 36.4978 31.0512 36.3108 31.1012C36.313 31.1005 36.3153 31.0997 36.3175 31.099C36.7287 30.9635 37.1788 30.8772 37.557 30.8757Z" fill="#7096E1"/>
<path d="M36.4651 39.9439C36.5548 39.6316 36.5167 39.2964 36.3592 39.0122C36.2017 38.728 35.9378 38.518 35.6255 38.4284C35.3132 38.3388 34.9781 38.3769 34.6938 38.5343C34.4096 38.6918 34.1996 38.9557 34.11 39.268C34.11 39.268 34.11 39.268 34.11 39.268C34.0264 39.5964 34.0294 39.6917 34.0064 39.8595C33.9892 40.0113 33.9766 40.152 33.9651 40.2946C33.9426 40.5756 33.9261 40.8526 33.9121 41.1252C33.8127 43.2338 33.8117 45.2948 33.8193 47.3709C33.8193 47.3711 33.8193 47.3712 33.8193 47.3714C33.8321 52.81 33.5916 58.2864 33.5778 63.7795C33.5778 63.7816 33.5778 63.7837 33.5778 63.7858C33.6188 65.6969 33.451 67.4173 33.8775 69.6601C33.8781 69.6627 33.8787 69.6653 33.8793 69.6679C33.9135 69.8149 33.96 69.9645 34.0206 70.115C34.2605 70.6545 34.5958 71.2892 35.5036 71.7022C35.6526 71.7214 35.8026 71.7318 35.9421 71.7069C36.0818 71.6819 36.2007 71.6224 36.2854 71.5273C36.3701 71.4321 36.4154 71.307 36.424 71.1654C36.4324 71.024 36.4047 70.8762 36.3683 70.7305C36.3683 70.7305 36.3683 70.7305 36.3683 70.7305C36.5096 70.3883 36.5791 69.9322 36.5377 69.4631C36.5261 69.3347 36.5058 69.2039 36.4754 69.0704C36.4749 69.068 36.4744 69.0657 36.4738 69.0634C36.1759 67.6444 36.2649 65.5987 36.2419 63.7868C36.2419 63.7847 36.2419 63.7827 36.2419 63.7806C36.2553 58.3371 36.2822 52.8563 36.2695 47.3588C36.2695 47.3586 36.2695 47.3584 36.2695 47.3582C36.2615 45.3081 36.2643 43.2525 36.3591 41.2498C36.3722 40.9938 36.3877 40.7361 36.4074 40.4909C36.4173 40.3672 36.4282 40.2479 36.4409 40.1362C36.4496 40.0399 36.4817 39.8703 36.4651 39.9439Z" fill="#7096E1"/>
<path d="M46.9796 28.4207C46.9796 28.1143 46.8579 27.8205 46.6413 27.6038C46.4246 27.3872 46.1308 27.2655 45.8244 27.2655C45.518 27.2655 45.2241 27.3872 45.0075 27.6038C44.7908 27.8205 44.6691 28.1143 44.6691 28.4207C44.7743 30.6743 44.8595 32.7314 44.9397 34.8904C44.975 35.8343 45.0093 36.7825 45.0426 37.7273C45.0437 37.7583 45.0448 37.7893 45.0459 37.8205C45.2949 45.5204 45.2527 53.26 45.3903 60.9973C45.3922 61.1047 45.3941 61.2107 45.396 61.3153C45.4485 64.1052 45.4902 66.8549 45.5735 69.6681C45.5801 69.8162 45.5806 69.9242 45.601 70.1557C45.6085 70.2289 45.6129 70.2709 45.6208 70.3456C45.626 70.387 45.6201 70.3617 45.6417 70.5114C45.6453 70.5312 45.6473 70.55 45.6641 70.6186C45.6756 70.6575 45.6799 70.6971 45.7408 70.8366C45.7802 70.9101 45.8071 71.0118 46.0153 71.2254C46.1232 71.3274 46.3029 71.4782 46.6211 71.5544C46.9356 71.6377 47.354 71.5501 47.585 71.3939C48.0504 71.066 48.0568 70.8485 48.1152 70.739C48.1558 70.6232 48.1643 70.5656 48.173 70.5199C48.1882 70.422 48.1848 70.4278 48.1875 70.4027C48.1903 70.3653 48.1907 70.3448 48.1911 70.3281C48.1919 70.2676 48.1906 70.2571 48.1901 70.2398C48.1886 70.2071 48.1881 70.2017 48.1876 70.1925C48.1865 70.1748 48.1853 70.1564 48.1839 70.1354C48.1748 70.0064 48.1663 69.8941 48.1572 69.7707C48.1395 69.5305 48.1223 69.2968 48.1049 69.0521C48.071 68.5786 48.0383 68.0988 48.0071 67.621C47.9446 66.6617 47.8883 65.7072 47.8376 64.7512C47.7361 62.835 47.6577 60.9224 47.6069 59.0055C47.6026 58.8455 47.5995 58.6874 47.5977 58.5302C47.5872 57.1226 47.6828 55.5605 47.7097 54.0446C47.7135 53.8942 47.7175 53.7444 47.7215 53.5953C47.8874 48.5056 47.9211 43.1587 48.3126 38.3632C48.3289 38.2696 48.3456 38.1759 48.3626 38.0828C48.7064 36.1685 49.2542 34.3635 50.1886 32.7627C50.2145 32.7181 50.2443 32.6701 50.2755 32.6229C51.165 31.3571 52.8462 30.1666 54.4341 29.267C54.4489 29.2589 54.462 29.2527 54.4746 29.2475C54.5667 29.1272 55.3162 29.3672 55.9589 29.9459C56.6168 30.502 57.2388 31.2194 57.8282 31.9754C57.8671 32.0254 57.9099 32.0855 57.9484 32.1445C59.6522 35.5428 59.7816 40.6234 60.3129 45.0747C60.3195 45.1412 60.3261 45.2082 60.3325 45.2756C60.7251 49.6504 60.6923 54.1284 60.7225 58.6281L60.7225 58.6093C60.7223 58.6357 60.7222 58.6619 60.722 58.6881C60.7183 59.2039 60.7126 59.7133 60.7035 60.2275C60.6808 61.594 60.63 62.8809 60.5092 64.253L60.5071 64.2886C60.5067 64.2967 60.5063 64.3048 60.5059 64.3129C60.4714 65.1393 60.631 65.906 60.9313 66.6774C60.9989 66.8475 61.0953 67.0106 61.2335 67.1308C61.3716 67.2511 61.5387 67.3186 61.7106 67.3186C61.8825 67.3186 62.0497 67.2511 62.1877 67.1308C62.3259 67.0106 62.4223 66.8475 62.4899 66.6774C62.7933 65.9084 62.9378 65.1361 62.9683 64.4235C62.9686 64.4165 62.9689 64.4095 62.9693 64.4025L62.9671 64.438C63.0874 63.0852 63.1444 61.6397 63.1648 60.2699C63.1736 59.745 63.1791 59.2279 63.1828 58.7056C63.183 58.6792 63.1832 58.6526 63.1834 58.6258L63.1834 58.607C63.1519 54.1328 63.2043 49.6176 62.795 45.0417C62.7882 44.9706 62.7814 44.8999 62.7744 44.8296C62.1502 40.2125 62.3882 35.7241 59.988 30.8061C59.9176 30.6989 59.8342 30.5814 59.7508 30.4749C59.1005 29.648 58.4054 28.8284 57.5245 28.0821C56.6739 27.4291 55.4314 26.3425 53.5456 27.0024C53.4444 27.0444 53.3472 27.0915 53.2516 27.1449C51.4198 28.2243 49.7001 29.3085 48.258 31.2901C48.2035 31.3726 48.1482 31.4612 48.0967 31.5501C46.9838 33.4521 46.349 35.5849 45.9802 37.6474C45.9618 37.7478 45.9439 37.8485 45.9265 37.9486C45.4644 43.3945 45.4772 48.3459 45.3006 53.5288C45.2965 53.6778 45.2922 53.8276 45.2877 53.9781C45.2547 55.4889 45.1215 56.9338 45.1173 58.5475C45.1179 58.7195 45.1199 58.8904 45.1231 59.0612C45.1588 61.0019 45.2206 62.9368 45.308 64.8753C45.3517 65.8424 45.4016 66.8081 45.459 67.7792C45.4875 68.2629 45.518 68.7488 45.5499 69.2283C45.5664 69.476 45.5826 69.713 45.5995 69.9545C45.608 70.0769 45.6165 70.1955 45.6238 70.3072C45.625 70.3243 45.6258 70.3376 45.6262 70.3449C45.6263 70.3468 45.6267 70.3563 45.6262 70.3453C45.6261 70.3369 45.6249 70.3326 45.6256 70.2757C45.626 70.26 45.6264 70.2402 45.6292 70.2034C45.6318 70.1786 45.6284 70.1846 45.6436 70.0872C45.6522 70.0416 45.6607 69.9843 45.7012 69.8685C45.7596 69.7591 45.7659 69.5417 46.2313 69.2139C46.4623 69.0577 46.8806 68.9701 47.1951 69.0533C47.5133 69.1296 47.6929 69.2804 47.8008 69.3823C48.009 69.5958 48.0359 69.6975 48.0751 69.7708C48.136 69.9101 48.1402 69.9493 48.1514 69.9876C48.168 70.0549 48.1696 70.072 48.1728 70.0892C48.1864 70.1828 48.1732 70.0832 48.1731 70.0762C48.1664 70.0114 48.1622 69.9685 48.1551 69.8973C48.1516 69.8615 48.1441 69.6951 48.1402 69.5757C48.0672 66.8392 48.0294 64.048 47.9776 61.2693C47.9757 61.1649 47.9738 61.059 47.9719 60.9519C47.8343 53.2178 47.6077 45.4887 47.355 37.7392C47.3539 37.708 47.3528 37.6769 47.3517 37.6459C47.3184 36.6997 47.284 35.7499 47.2487 34.804C47.1692 32.6795 47.0796 30.4468 46.9796 28.4207Z" fill="#7096E1"/>
</svg>
