<svg width="100" height="96" viewBox="0 0 100 96" fill="none" xmlns="http://www.w3.org/2000/svg">
<path d="M1.46417 86.1522C1.22418 86.0322 0.94634 86.0125 0.691785 86.0973C0.43723 86.1822 0.226808 86.3647 0.10681 86.6047C-0.0131884 86.8447 -0.0329336 87.1225 0.051918 87.3771C0.13677 87.6316 0.319268 87.842 0.559264 87.962C0.559264 87.962 0.559264 87.962 0.559264 87.962C1.82272 88.4589 2.68393 88.701 3.7449 89.0617C3.74501 89.0617 3.74512 89.0617 3.74523 89.0618C8.09732 90.5098 12.5005 91.9318 17.0228 92.9498C17.4587 93.0478 17.895 93.1419 18.3337 93.232C18.3338 93.232 18.334 93.232 18.3341 93.2321C25.5657 94.7334 32.9521 95.1154 40.2484 95.1102C40.2506 95.1102 40.2528 95.1102 40.2551 95.1102C49.8811 95.0629 59.4675 94.6314 69.0624 93.6475C69.0667 93.647 69.071 93.6466 69.0753 93.6461C74.2257 93.064 79.4445 92.345 84.4662 90.4527C84.471 90.4509 84.4759 90.449 84.4808 90.4472C89.1509 88.755 92.6544 84.8787 95.0186 80.9045C95.019 80.9038 95.0194 80.9032 95.0198 80.9025C96.4306 78.6908 96.8591 76.1506 97.3345 73.8836C97.3346 73.8829 97.3348 73.8821 97.3349 73.8814C98.215 69.3536 98.8719 64.8414 99.3447 60.2618C99.3449 60.2601 99.3451 60.2584 99.3452 60.2567C99.9237 55.2322 99.582 50.1077 99.1232 45.1707C99.1229 45.1669 99.1225 45.1631 99.1222 45.1594C98.3326 36.8441 97.3556 28.5772 96.2905 20.3036C96.2898 20.298 96.289 20.2925 96.2883 20.2869C95.7515 16.971 95.6946 13.722 93.981 10.2177C93.9789 10.214 93.9768 10.2102 93.9747 10.2065C92.6371 7.92833 90.475 7.01996 88.6498 6.08853C88.6452 6.08632 88.6406 6.0841 88.6359 6.08188C84.8026 4.35374 80.9162 3.47336 76.9956 2.63983C76.9901 2.63871 76.9845 2.63758 76.979 2.63645C70.8218 1.40751 64.6338 0.686179 58.4023 0.255357C58.3955 0.254908 58.3887 0.254461 58.3819 0.254014C53.6042 -0.0627837 48.7879 -0.0935413 44.0028 0.220139C43.9949 0.220641 43.9871 0.221143 43.9792 0.221645C39.4804 0.480491 34.9326 1.05494 30.5652 1.41008C30.5579 1.41055 30.5506 1.41102 30.5433 1.41149C25.801 1.73547 21.1286 2.51426 16.5454 3.93936C16.5375 3.94189 16.5297 3.94441 16.5219 3.94693C12.1142 5.05212 8.84103 9.287 7.32027 13.0549C7.31905 13.0575 7.31782 13.0601 7.3166 13.0627C5.75088 16.8684 5.35234 20.4618 4.72194 24.1307C4.72155 24.1333 4.72116 24.1359 4.72076 24.1384C3.53048 32.1243 2.83763 40.1304 2.35913 48.1545C2.35909 48.1552 2.35905 48.1559 2.35901 48.1566C1.88214 56.538 1.67494 64.9168 1.62248 73.2972C1.62247 73.2983 1.62247 73.2995 1.62246 73.3007C1.61797 74.2214 1.63034 75.1408 1.66607 76.0633C1.83693 80.1867 2.40583 84.8518 5.16723 88.4542L5.24011 88.5467C5.24041 88.5471 5.24071 88.5474 5.24101 88.5478C5.78329 89.1706 6.62041 89.5939 7.43793 89.904C7.43819 89.9041 7.43844 89.9042 7.4387 89.9043C8.32742 90.2516 9.20414 90.2909 10.0154 90.3067C10.0902 90.3075 10.1695 90.2746 10.2339 90.2239C10.2984 90.1728 10.3427 90.1081 10.359 90.0353C10.3753 89.9625 10.3628 89.8851 10.3262 89.8113C10.2896 89.7381 10.2318 89.6745 10.1638 89.6434C10.1638 89.6434 10.1638 89.6434 10.1638 89.6434C9.43775 89.3125 8.76426 88.9391 8.2935 88.4675C8.29336 88.4674 8.29321 88.4672 8.29307 88.4671C7.82808 88.0163 7.57315 87.3993 7.14252 86.8993C7.14228 86.899 7.14204 86.8987 7.14181 86.8984L7.21469 86.9909C4.9036 83.9413 4.43064 79.9747 4.27507 75.9673C4.2446 75.0879 4.23483 74.204 4.23961 73.3142C4.23962 73.313 4.23962 73.3119 4.23963 73.3107C4.29571 64.9754 4.50377 56.6222 4.97959 48.309C4.97963 48.3083 4.97967 48.3076 4.97971 48.3068C5.45591 40.3522 6.15337 32.3816 7.32327 24.5367C7.32366 24.5342 7.32404 24.5317 7.32442 24.5292C7.91736 20.9536 8.25919 17.1173 9.52328 14.098C9.52419 14.0961 9.5251 14.0941 9.52601 14.0922C11.1597 10.298 13.4502 7.32626 17.2676 6.26346C17.2749 6.26111 17.2821 6.25877 17.2894 6.25643C21.589 4.91647 26.1641 4.14624 30.6986 3.84012C30.7063 3.83963 30.7141 3.83913 30.7219 3.83863C35.3027 3.46518 39.6621 2.90815 44.1347 2.65027C44.1424 2.64978 44.1501 2.64929 44.1577 2.6488C48.8395 2.34221 53.5304 2.38336 58.2219 2.69409C58.2286 2.69453 58.2353 2.69497 58.242 2.69541C64.3605 3.11721 70.5038 3.83628 76.4889 5.03214C76.4943 5.03325 76.4997 5.03435 76.5051 5.03546C80.3121 5.83629 84.2012 6.74468 87.5915 8.27352C87.5959 8.27561 87.6003 8.2777 87.6047 8.27978C89.3698 9.13364 91.1625 10.0488 91.885 11.3836C91.8868 11.3868 91.8886 11.39 91.8904 11.3932C93.1535 13.8447 93.4358 17.4146 93.9141 20.5985C93.9149 20.604 93.9156 20.6095 93.9163 20.615C94.9765 28.8493 95.9543 37.1256 96.7377 45.3787C96.7381 45.3824 96.7384 45.3862 96.7388 45.3899C97.1949 50.3255 97.5268 55.1653 96.9702 60.021C96.97 60.0227 96.9699 60.0244 96.9697 60.026C96.5089 64.4986 95.8441 69.0038 94.9798 73.4078C94.9796 73.4085 94.9795 73.4092 94.9793 73.4099C94.5038 75.6874 94.0612 77.8521 92.9073 79.5913C92.907 79.5919 92.9066 79.5924 92.9063 79.593C90.5924 83.352 87.533 86.5327 83.5458 87.9694C83.5412 87.9711 83.5367 87.9728 83.5321 87.9745C78.9046 89.7042 73.8445 90.4071 68.7869 90.9741C68.7827 90.9746 68.7785 90.975 68.7743 90.9755C59.3316 91.9447 49.7619 92.3912 40.2496 92.4539C40.2474 92.4539 40.2452 92.4539 40.243 92.4539C33.024 92.4721 25.8239 92.2368 18.7963 90.8905C18.7961 90.8905 18.796 90.8905 18.7958 90.8904C18.3684 90.8095 17.9424 90.7262 17.516 90.6401C13.0909 89.7458 8.6998 88.5779 4.37982 87.1404C4.37971 87.1404 4.37961 87.1403 4.3795 87.1403C3.39843 86.8134 2.20571 86.43 1.46417 86.1522Z" fill="#FF5D60"/>
<path d="M91.7713 10.0385C92.0242 9.78555 92.1663 9.44252 92.1663 9.08484C92.1663 8.72716 92.0242 8.38413 91.7713 8.13121C91.5183 7.87829 91.1753 7.73621 90.8176 7.73621C90.4599 7.73621 90.1169 7.87829 89.864 8.13121C89.864 8.13121 89.864 8.13121 89.864 8.13121C88.3795 10.2396 87.5392 11.6105 86.3663 13.3468C84.9121 15.528 83.4441 17.7135 81.978 19.888C81.9765 19.8902 81.975 19.8924 81.9735 19.8946C76.2617 28.2873 70.2269 36.5489 64.1152 44.6531C64.1097 44.6604 64.1041 44.6678 64.0985 44.6751C61.819 47.5423 59.4393 51.0786 56.864 52.4738C56.856 52.4776 56.848 52.4813 56.84 52.485C54.9996 53.3534 52.6972 53.1148 50.2305 52.8346C50.2281 52.8344 50.2257 52.8341 50.2233 52.8339C49.6593 52.8265 48.1954 51.5661 47.1191 50.4795C45.9776 49.3442 44.8513 48.1328 43.7337 46.9065C43.7291 46.9015 43.7245 46.8964 43.7199 46.8913C40.4946 43.2637 37.5795 39.1408 34.33 35.2547C34.3263 35.2503 34.3226 35.2458 34.3189 35.2414C31.3921 31.7292 28.2836 28.4775 25.4986 25.0061C25.4962 25.0032 25.4939 25.0003 25.4915 24.9973C22.9491 21.8354 20.3834 18.6248 17.9955 15.2925C17.641 14.7969 17.2851 14.29 16.9409 13.7889C16.9404 13.7882 16.9399 13.7875 16.9393 13.7867C16.1647 12.6458 15.3261 11.4749 14.6794 10.3757C14.5489 10.1473 14.3329 9.98 14.079 9.91076C13.8252 9.84152 13.5542 9.87597 13.3257 10.0065C13.0972 10.1371 12.93 10.3531 12.8608 10.6069C12.7915 10.8608 12.826 11.1318 12.9565 11.3603C12.9565 11.3603 12.9565 11.3603 12.9565 11.3603C13.7234 12.6575 14.5136 13.7437 15.3038 14.9105C15.3043 14.9112 15.3048 14.912 15.3054 14.9127C15.6511 15.4159 16.0005 15.931 16.3425 16.4393C18.6482 19.8579 20.8554 23.3531 23.3984 26.6516C23.4007 26.6547 23.4031 26.6578 23.4055 26.6608C26.2042 30.2957 29.2883 33.6279 32.1386 37.061C32.1422 37.0654 32.1458 37.0697 32.1495 37.0741C35.3175 40.8684 38.1871 44.9433 41.6078 48.8072C41.6128 48.8127 41.6178 48.8182 41.6228 48.8237C42.7447 50.0579 43.8412 51.3053 45.0187 52.5412C46.3012 53.7082 47.1277 55.243 49.9058 55.8485C49.9082 55.8487 49.9106 55.849 49.9129 55.8492C52.3578 56.1065 55.2886 56.3683 58.0503 55.0886C58.0614 55.0834 58.0726 55.0781 58.0839 55.0729C62.1823 52.675 63.9102 49.4 66.383 46.4141C66.3887 46.4067 66.3943 46.3993 66.3999 46.3919C72.5677 38.2125 78.4479 29.8683 84.2099 21.4025C84.2114 21.4003 84.2129 21.3981 84.2144 21.3959C85.6824 19.2186 87.1527 17.0297 88.6106 14.843C89.6705 13.2446 91.0166 11.2512 91.7713 10.0385Z" fill="#FF5D60"/>
</svg>
